<?xml version="1.0" encoding="utf-8"?>
<!-- Uploaded to: SVG Repo, www.svgrepo.com, Generator: SVG Repo Mixer Tools -->
<svg width="800px" height="800px" viewBox="0 0 1024 1024" class="icon"  version="1.1" xmlns="http://www.w3.org/2000/svg"><path d="M511.46752 512.94208m-495.52384 0a495.52384 495.52384 0 1 0 991.04768 0 495.52384 495.52384 0 1 0-991.04768 0Z" fill="#FCA56B" /><path d="M511.46752 512.94208m-440.70912 0a440.70912 440.70912 0 1 0 881.41824 0 440.70912 440.70912 0 1 0-881.41824 0Z" fill="#FFFABC" /><path d="M397.60896 295.54176m-81.33632 0a81.33632 81.33632 0 1 0 162.67264 0 81.33632 81.33632 0 1 0-162.67264 0Z" fill="#EB4E41" /><path d="M366.4384 264.3712m-10.4192 0a10.4192 10.4192 0 1 0 20.8384 0 10.4192 10.4192 0 1 0-20.8384 0Z" fill="#FCA56B" /><path d="M366.4384 321.85856m-10.4192 0a10.4192 10.4192 0 1 0 20.8384 0 10.4192 10.4192 0 1 0-20.8384 0Z" fill="#FCA56B" /><path d="M433.10592 264.3712m-10.4192 0a10.4192 10.4192 0 1 0 20.8384 0 10.4192 10.4192 0 1 0-20.8384 0Z" fill="#FCA56B" /><path d="M397.60896 295.54176m-10.4192 0a10.4192 10.4192 0 1 0 20.8384 0 10.4192 10.4192 0 1 0-20.8384 0Z" fill="#FCA56B" /><path d="M433.10592 332.27776m-10.4192 0a10.4192 10.4192 0 1 0 20.8384 0 10.4192 10.4192 0 1 0-20.8384 0Z" fill="#FCA56B" /><path d="M666.91584 332.96896m-81.33632 0a81.33632 81.33632 0 1 0 162.67264 0 81.33632 81.33632 0 1 0-162.67264 0Z" fill="#EB4E41" /><path d="M635.74528 301.7984m-10.4192 0a10.4192 10.4192 0 1 0 20.8384 0 10.4192 10.4192 0 1 0-20.8384 0Z" fill="#FCA56B" /><path d="M635.74528 359.28576m-10.4192 0a10.4192 10.4192 0 1 0 20.8384 0 10.4192 10.4192 0 1 0-20.8384 0Z" fill="#FCA56B" /><path d="M702.4128 301.7984m-10.4192 0a10.4192 10.4192 0 1 0 20.8384 0 10.4192 10.4192 0 1 0-20.8384 0Z" fill="#FCA56B" /><path d="M666.91584 332.96896m-10.4192 0a10.4192 10.4192 0 1 0 20.8384 0 10.4192 10.4192 0 1 0-20.8384 0Z" fill="#FCA56B" /><path d="M702.4128 369.70496m-10.4192 0a10.4192 10.4192 0 1 0 20.8384 0 10.4192 10.4192 0 1 0-20.8384 0Z" fill="#FCA56B" /><path d="M733.68064 591.67232m-81.33632 0a81.33632 81.33632 0 1 0 162.67264 0 81.33632 81.33632 0 1 0-162.67264 0Z" fill="#EB4E41" /><path d="M702.51008 560.50176m-10.4192 0a10.4192 10.4192 0 1 0 20.8384 0 10.4192 10.4192 0 1 0-20.8384 0Z" fill="#FCA56B" /><path d="M702.51008 617.99424m-10.4192 0a10.4192 10.4192 0 1 0 20.8384 0 10.4192 10.4192 0 1 0-20.8384 0Z" fill="#FCA56B" /><path d="M769.17248 560.50176m-10.4192 0a10.4192 10.4192 0 1 0 20.8384 0 10.4192 10.4192 0 1 0-20.8384 0Z" fill="#FCA56B" /><path d="M733.68064 591.67232m-10.4192 0a10.4192 10.4192 0 1 0 20.8384 0 10.4192 10.4192 0 1 0-20.8384 0Z" fill="#FCA56B" /><path d="M769.17248 628.40832m-10.4192 0a10.4192 10.4192 0 1 0 20.8384 0 10.4192 10.4192 0 1 0-20.8384 0Z" fill="#FCA56B" /><path d="M495.70816 730.33728m-81.33632 0a81.33632 81.33632 0 1 0 162.67264 0 81.33632 81.33632 0 1 0-162.67264 0Z" fill="#EB4E41" /><path d="M464.5376 699.16672m-10.4192 0a10.4192 10.4192 0 1 0 20.8384 0 10.4192 10.4192 0 1 0-20.8384 0Z" fill="#FCA56B" /><path d="M464.5376 756.65408m-10.4192 0a10.4192 10.4192 0 1 0 20.8384 0 10.4192 10.4192 0 1 0-20.8384 0Z" fill="#FCA56B" /><path d="M531.20512 699.16672m-10.4192 0a10.4192 10.4192 0 1 0 20.8384 0 10.4192 10.4192 0 1 0-20.8384 0Z" fill="#FCA56B" /><path d="M495.70816 730.33728m-10.4192 0a10.4192 10.4192 0 1 0 20.8384 0 10.4192 10.4192 0 1 0-20.8384 0Z" fill="#FCA56B" /><path d="M531.20512 767.07328m-10.4192 0a10.4192 10.4192 0 1 0 20.8384 0 10.4192 10.4192 0 1 0-20.8384 0Z" fill="#FCA56B" /><path d="M289.25952 564.9152m-81.33632 0a81.33632 81.33632 0 1 0 162.67264 0 81.33632 81.33632 0 1 0-162.67264 0Z" fill="#EB4E41" /><path d="M258.08896 533.74464m-10.4192 0a10.4192 10.4192 0 1 0 20.8384 0 10.4192 10.4192 0 1 0-20.8384 0Z" fill="#FCA56B" /><path d="M258.08896 591.232m-10.4192 0a10.4192 10.4192 0 1 0 20.8384 0 10.4192 10.4192 0 1 0-20.8384 0Z" fill="#FCA56B" /><path d="M324.75136 533.74464m-10.4192 0a10.4192 10.4192 0 1 0 20.8384 0 10.4192 10.4192 0 1 0-20.8384 0Z" fill="#FCA56B" /><path d="M289.25952 564.9152m-10.4192 0a10.4192 10.4192 0 1 0 20.8384 0 10.4192 10.4192 0 1 0-20.8384 0Z" fill="#FCA56B" /><path d="M324.75136 601.64608m-10.4192 0a10.4192 10.4192 0 1 0 20.8384 0 10.4192 10.4192 0 1 0-20.8384 0Z" fill="#FCA56B" /><path d="M276.77696 329.10336l4.27008 16.77824c-10.24 2.41152-23.15776 8.2432-30.9248 15.81568-7.808 7.61344-14.08 20.80768-16.73216 31.04768l-16.55808-5.05344c3.15904-14.41792 10.1632-27.776 21.13024-38.46656 10.92096-10.6496 24.38656-17.3056 38.81472-20.1216zM535.13216 215.49056l8.65792-14.99648c9.0112 5.42208 22.33344 10.27072 33.18272 10.27072 10.9056 0 24.60672-5.0688 33.65888-10.5472l8.32512 15.17568c-12.32896 8.1152-26.67008 12.78976-41.984 12.78976-15.2576 0-29.5424-4.6336-41.84064-12.69248zM820.25472 511.67744l-14.44352-9.5488c5.95456-8.66816 11.60192-21.67296 12.25728-32.50176 0.66048-10.88512-3.56864-24.86784-8.49408-34.23232l15.65184-7.39328c7.35744 12.8 11.15136 27.392 10.22976 42.68032-0.9216 15.22688-6.41536 29.20448-15.20128 40.99584zM478.8736 524.61568l8.65792-14.99648c9.0112 5.42208 22.33344 10.27072 33.18272 10.27072 10.9056 0 24.60672-5.0688 33.65888-10.5472l8.32512 15.17568c-12.32896 8.1152-26.67008 12.78976-41.984 12.78976-15.2576 0-29.5424-4.63872-41.84064-12.69248zM228.75136 682.50112l17.24928 1.48992c-1.09568 10.46016 0.15872 24.58112 4.75136 34.4064 4.61824 9.8816 15.01184 20.1472 23.808 26.02496l-10.21952 13.97248c-12.57472-7.7312-22.88128-18.74432-29.36832-32.6144-6.46144-13.824-8.30976-28.72832-6.2208-43.27936zM660.16256 852.95616l-2.66752-17.10592c10.4192-1.4336 23.8336-6.016 32.2816-12.82048 8.49408-6.84032 15.98464-19.38432 19.59424-29.32736l16.00512 6.59456c-4.51072 14.0544-12.74368 26.69056-24.67328 36.3008-11.87328 9.56928-25.9072 14.91968-40.54016 16.3584z" fill="#30C03F" /></svg>