<svg version="1.1" id="Layer_1" xmlns="http://www.w3.org/2000/svg" xmlns:xlink="http://www.w3.org/1999/xlink" x="0px" y="0px"
	 width="100%" viewBox="0 0 500 500" enable-background="new 0 0 500 500" xml:space="preserve">
<path fill="#000000" opacity="1.000000" stroke="none" 
	d="
M241.000000,501.000000 
	C160.666687,501.000000 80.833374,501.000000 1.000043,501.000000 
	C1.000029,334.333405 1.000029,167.666779 1.000014,1.000132 
	C167.666565,1.000088 334.333130,1.000088 500.999756,1.000044 
	C500.999847,167.666519 500.999847,334.333038 500.999939,500.999786 
	C414.500000,501.000000 328.000000,501.000000 241.000000,501.000000 
M272.141449,241.264389 
	C272.141449,241.264389 272.246643,241.466080 272.877350,241.334518 
	C273.339386,240.907349 273.801453,240.480164 274.660065,240.018478 
	C274.940826,239.907776 275.084259,239.701584 275.718048,239.098190 
	C290.955780,227.808716 296.940857,202.003235 279.897430,188.403381 
	C277.517426,186.504242 276.631348,182.079224 276.145355,178.667923 
	C275.759186,175.957642 277.041534,173.009613 277.576202,170.203247 
	C271.728851,174.693893 270.049408,179.840195 272.717255,186.714493 
	C274.632172,191.648560 277.144989,196.347290 279.199554,201.231583 
	C280.625916,204.622559 280.479126,208.000504 278.630737,211.533707 
	C276.115662,206.753754 273.924927,202.590179 271.596954,198.165833 
	C270.898071,203.826019 271.025543,208.700073 269.496643,212.982803 
	C268.564270,215.594574 265.159180,218.851456 262.723022,218.972733 
	C260.241669,219.096283 256.720337,216.275055 255.166031,213.795578 
	C249.963089,205.495682 250.627548,197.086014 256.550049,189.203995 
	C260.245270,184.286133 264.408173,179.661804 267.609406,174.444473 
	C272.100952,167.124161 270.448853,161.557999 263.030304,157.298019 
	C259.736633,155.406677 256.143494,154.020309 252.637482,152.518723 
	C244.824509,149.172501 241.475357,146.152542 245.683212,136.950165 
	C248.235229,131.369049 248.325424,125.186996 245.527054,119.296333 
	C246.181595,129.218842 240.727921,136.572006 235.531281,144.072266 
	C231.648941,149.675568 232.615082,152.537277 238.892532,155.076111 
	C241.655441,156.193527 244.473999,157.240204 247.083130,158.657913 
	C253.808044,162.312073 254.813217,165.942688 250.494904,172.347763 
	C248.000381,176.047699 244.888901,179.351898 241.893967,182.689651 
	C237.007202,188.135727 233.540802,194.270615 232.367310,201.547073 
	C232.001816,203.813431 231.995148,206.137650 231.824234,208.435379 
	C230.031982,201.105576 231.053436,194.281662 234.781754,187.781616 
	C236.914444,184.063400 238.840561,180.156937 240.279877,176.128098 
	C242.144958,170.907440 240.592697,167.469604 235.558197,165.126068 
	C232.424637,163.667435 229.101791,162.477325 225.743149,161.667755 
	C217.602325,159.705429 209.962341,156.935349 204.183350,149.671295 
	C204.477722,154.898483 206.186523,158.027069 210.643982,160.920242 
	C213.550751,162.806900 216.740799,164.283478 219.884384,165.774094 
	C230.177521,170.654816 230.522614,171.613312 222.115906,179.069183 
	C211.549973,188.440018 204.930679,199.272537 206.962906,213.997910 
	C206.989319,214.189423 206.647797,214.431717 206.217606,214.985565 
	C199.331497,205.904938 199.127106,195.663956 201.053650,184.405426 
	C189.707443,193.563965 185.946899,210.153595 191.523346,223.164169 
	C191.523346,223.164169 191.569290,223.189331 191.661606,223.852432 
	C192.106415,224.584473 192.551239,225.316498 193.055466,226.744934 
	C199.964539,239.182770 210.997192,246.227524 224.366714,249.508286 
	C240.790710,253.538589 256.631622,252.021698 271.645111,242.110168 
	C271.885376,241.815948 272.125671,241.521729 272.141449,241.264389 
M325.764679,316.494385 
	C325.513519,316.004089 325.262390,315.513763 325.525787,314.613831 
	C326.812469,313.912903 328.099121,313.211975 329.991943,312.180817 
	C328.285431,310.598694 327.067413,308.988556 325.455750,308.065643 
	C320.663879,305.321289 311.615448,308.004181 307.035858,313.318726 
	C304.419098,316.355499 303.661469,319.756744 305.333405,323.486389 
	C307.033783,327.279510 310.087128,328.820770 314.176453,328.576080 
	C315.297150,328.509003 316.432709,328.690399 317.561462,328.757782 
	C317.587402,329.074402 317.613342,329.390991 317.639282,329.707611 
	C315.271301,331.008179 312.903320,332.308746 309.275513,334.301239 
	C312.295685,336.208984 314.359558,338.277191 316.791107,338.892517 
	C322.178009,340.255737 326.878387,337.826385 331.142761,334.743652 
	C334.902771,332.025543 337.202271,328.453125 335.866974,323.606842 
	C334.511871,318.688477 330.824127,316.914673 325.764679,316.494385 
M263.345062,269.060608 
	C240.590637,275.020294 217.686478,280.102875 193.940186,278.052063 
	C187.658081,277.509521 181.489670,275.650482 175.367615,274.415802 
	C183.448547,286.854675 195.489792,293.927490 209.733612,296.883209 
	C243.696274,303.930786 274.820374,296.798981 302.719879,276.314606 
	C314.804077,267.442200 323.828766,256.060516 327.440826,241.108597 
	C328.051422,238.580978 327.998016,235.892944 328.251373,233.279007 
	C323.273865,240.481644 316.800385,245.498627 309.678925,248.920883 
	C294.746246,256.096832 279.338928,262.285156 263.345062,269.060608 
M204.541443,263.723663 
	C200.420990,263.204315 196.117691,263.252045 192.233521,261.999756 
	C188.633896,260.839233 184.657700,258.942902 182.421234,256.122528 
	C180.911697,254.218872 182.133438,250.149399 182.133438,247.246872 
	C178.071655,248.615952 174.165207,253.879883 173.790039,258.709839 
	C173.349548,264.380524 176.967499,267.206696 181.411087,268.374268 
	C187.629517,270.008179 194.105667,271.350494 200.501801,271.496887 
	C225.265350,272.063843 249.051956,266.482330 272.316467,258.588318 
	C286.501526,253.775116 300.413849,248.071518 312.356537,238.805496 
	C316.557098,235.546417 320.098572,231.085724 322.881073,226.526810 
	C323.973633,224.736664 322.955048,220.626160 321.506134,218.538162 
	C318.753754,214.571686 311.692627,212.701324 306.570892,213.511505 
	C315.235596,217.787811 316.285889,223.145584 309.356018,229.990463 
	C306.072357,233.233887 302.351593,236.240433 298.354065,238.522644 
	C269.614471,254.930252 238.598404,263.159821 204.541443,263.723663 
M414.757965,180.222641 
	C408.907990,189.855774 400.880829,197.275665 390.967438,202.439438 
	C382.287384,206.960754 373.257477,210.806305 364.431244,215.052383 
	C357.261963,218.501343 349.732574,221.446548 343.145630,225.799576 
	C334.813049,231.306213 331.110931,239.793503 331.715942,249.945145 
	C332.802094,248.918137 333.554749,247.717072 334.217010,246.468094 
	C338.705200,238.003891 344.989655,231.264206 353.579193,226.935165 
	C359.803680,223.798065 366.146179,220.873703 372.548035,218.114304 
	C386.734161,211.999634 401.225128,206.531647 415.106262,199.798889 
	C420.865662,197.005402 425.889557,192.101379 430.212555,187.237030 
	C431.909119,185.327988 431.914642,180.342606 430.651062,177.753357 
	C428.853516,174.069855 424.502960,174.237671 420.903412,175.797409 
	C418.830292,176.695709 417.077209,178.332672 414.757965,180.222641 
M395.751984,265.048462 
	C402.629852,264.551758 403.577576,263.702301 406.284302,255.441956 
	C397.782227,250.546066 389.239349,245.626678 380.551331,240.623718 
	C378.365570,244.410950 376.500488,247.642532 374.572815,250.982574 
	C377.598114,252.781464 380.093719,254.265381 382.589294,255.749298 
	C375.235016,256.886597 367.576141,256.890900 366.185608,266.891296 
	C374.479767,271.684357 383.019318,276.619202 391.871246,281.734589 
	C393.977631,278.024384 395.817322,274.783966 397.723511,271.426392 
	C394.824158,269.606781 392.274475,268.006592 388.815460,265.835693 
	C391.633911,265.501404 393.268280,265.307556 395.751984,265.048462 
M123.971046,272.604462 
	C130.880890,268.684845 133.026413,263.930450 130.016724,257.408356 
	C127.389870,251.715912 124.023834,246.364563 120.869247,240.654068 
	C111.861145,245.833023 103.290123,250.760696 94.338562,255.907135 
	C97.829491,259.842499 97.563858,266.244934 104.569221,266.456818 
	C101.484169,273.330414 107.388947,276.509399 109.605743,282.542572 
	C112.662079,275.690826 116.593910,272.015015 123.971046,272.604462 
M224.633347,323.818817 
	C217.443192,321.184601 210.253052,318.550385 202.646408,315.763550 
	C199.997467,326.630127 197.664734,336.199585 195.245270,346.124756 
	C201.190033,347.475433 206.618607,349.037445 212.156479,349.886658 
	C219.635696,351.033508 225.127090,348.231354 228.087952,342.462067 
	C231.393738,336.020630 230.457443,330.074677 224.633347,323.818817 
M362.141663,274.351379 
	C351.641510,277.766418 345.368439,286.901367 347.599548,295.527802 
	C349.655579,303.477234 357.680206,308.891144 365.252472,307.437531 
	C373.943298,305.769196 381.394806,296.655670 380.654999,288.599579 
	C379.857635,279.916748 372.487518,273.924469 362.141663,274.351379 
M284.498718,350.125641 
	C286.479767,350.162262 288.490601,350.437622 290.436859,350.195068 
	C299.939545,349.010925 305.241669,343.425110 303.992615,335.245483 
	C303.027313,328.923889 301.146759,322.742065 299.607239,316.219116 
	C295.273499,317.336273 291.497375,318.309723 287.523010,319.334259 
	C288.813843,324.628693 290.150574,329.421692 291.065491,334.293915 
	C291.331970,335.713013 290.394196,337.358215 290.008453,338.899780 
	C288.958740,337.698120 287.392090,336.659302 286.952972,335.265320 
	C285.431885,330.436340 284.302917,325.483826 282.972198,320.376709 
	C278.619202,321.501129 274.860657,322.472046 270.978912,323.474762 
	C272.470367,329.476868 273.760651,334.960175 275.207367,340.401947 
	C276.425507,344.984131 278.950775,348.512238 284.498718,350.125641 
M176.646347,303.970886 
	C171.404205,300.219513 166.162079,296.468109 160.661636,292.531860 
	C154.863464,301.188995 149.358170,309.408844 143.645737,317.937958 
	C147.212128,320.301117 150.472794,322.461700 153.924286,324.748718 
	C155.296692,322.955841 156.467056,321.426941 157.611343,319.932068 
	C167.620270,325.201050 172.231369,325.273071 176.749054,320.341278 
	C181.028870,315.669098 181.152664,310.537109 176.646347,303.970886 
M140.765564,306.328766 
	C144.499664,299.097961 148.233765,291.867188 152.081879,284.415619 
	C149.571503,281.714722 147.205811,278.913208 144.532562,276.444794 
	C143.697601,275.673798 141.779602,275.197693 140.786606,275.612976 
	C131.773270,279.382446 122.855057,283.379425 113.623726,287.435150 
	C114.609169,288.600952 115.234871,289.615662 116.108749,290.324371 
	C118.923340,292.607025 120.062538,297.279266 125.488197,296.069458 
	C126.643127,295.811951 130.505981,298.457794 129.313614,302.188477 
	C129.067474,302.958557 129.207199,304.215515 129.700699,304.796539 
	C132.026733,307.535004 134.537781,310.116302 137.223175,313.012939 
	C138.532120,310.495087 139.451172,308.727234 140.765564,306.328766 
M259.860535,352.064301 
	C259.860535,350.472961 259.860535,348.881622 259.860535,347.218445 
	C262.779419,347.011658 265.366760,346.828339 267.714874,346.661987 
	C267.714874,343.260773 267.714874,340.325867 267.714874,337.108734 
	C265.872162,337.108734 264.366180,337.317139 262.950653,337.048676 
	C261.601135,336.792755 260.345917,336.039490 259.049255,335.504883 
	C260.400665,334.989349 261.714264,334.266785 263.113159,334.011047 
	C264.836090,333.696075 266.630127,333.770020 268.737518,333.657501 
	C268.524384,330.029449 268.342438,326.931732 268.180817,324.180542 
	C260.724274,324.180542 253.675095,324.180542 247.211975,324.180542 
	C247.211975,334.757782 247.211975,344.644348 247.211975,355.484802 
	C252.131775,354.502045 255.999130,353.729523 259.860535,352.064301 
M194.555237,324.172577 
	C195.926437,321.006958 197.297653,317.841339 198.783173,314.411835 
	C194.863419,312.681580 191.292648,311.105408 187.433167,309.401764 
	C183.222977,318.897522 179.224258,327.916290 175.119110,337.175171 
	C179.233383,338.961578 182.804733,340.512238 186.561462,342.143402 
	C189.240921,336.063019 191.714783,330.449249 194.555237,324.172577 
M349.747314,309.712036 
	C345.976196,304.523773 342.205078,299.335510 338.268402,293.919495 
	C334.777954,296.453369 331.595215,298.763855 328.196289,301.231262 
	C334.196716,309.536194 339.973663,317.531799 345.956970,325.813019 
	C349.493378,323.270721 352.680389,320.979614 356.037933,318.565918 
	C353.975281,315.677124 352.058472,312.992584 349.747314,309.712036 
M280.910858,372.623383 
	C285.987305,365.363800 276.449402,368.641052 275.669189,364.961945 
	C277.631805,365.223328 279.393799,365.457977 281.155792,365.692627 
	C281.263702,365.176147 281.371643,364.659668 281.479553,364.143188 
	C279.394379,363.798462 277.240265,362.939819 275.237366,363.208466 
	C269.923920,363.921173 275.621246,368.861938 272.645355,370.653351 
	C273.723358,371.504608 274.688324,372.752014 275.909790,373.100494 
	C277.246368,373.481873 278.819977,373.032532 280.910858,372.623383 
M243.599213,370.313934 
	C243.372147,371.128571 243.145081,371.943207 243.100067,372.104736 
	C246.844177,372.104736 250.282104,372.104736 253.697479,372.104736 
	C253.515671,371.615173 253.308701,370.610779 252.805237,369.787750 
	C251.413437,367.512512 249.897858,365.312958 248.431198,363.083496 
	C246.915939,365.238647 245.400681,367.393799 243.599213,370.313934 
M229.265289,364.898163 
	C229.265289,367.496918 229.265289,370.095703 229.265289,372.548767 
	C232.522247,372.548767 235.257355,372.548767 237.992477,372.548767 
	C238.013733,372.158997 238.034988,371.769226 238.056244,371.379456 
	C236.115173,371.154327 234.174103,370.929169 232.494736,370.734406 
	C232.494736,368.830139 232.494736,367.066772 232.494736,365.308533 
	C234.441025,365.194977 236.210648,365.091736 237.980255,364.988525 
	C237.922363,364.302216 237.864471,363.615936 237.806580,362.929657 
	C235.008224,363.292053 232.209854,363.654449 229.265289,364.898163 
M264.662811,367.528290 
	C265.800293,366.313568 266.937744,365.098846 268.265472,363.680969 
	C264.630554,363.680969 261.453644,363.680969 258.276703,363.680969 
	C264.408081,364.871735 260.295105,370.615417 263.651062,374.372681 
	C264.109314,371.646454 264.381500,370.027100 264.662811,367.528290 
z"/>
<path fill="#F9B900" opacity="1.000000" stroke="none" 
	d="
M191.488266,223.204697 
	C185.946899,210.153595 189.707443,193.563965 201.053650,184.405426 
	C199.127106,195.663956 199.331497,205.904938 206.217606,214.985565 
	C206.647797,214.431717 206.989319,214.189423 206.962906,213.997910 
	C204.930679,199.272537 211.549973,188.440018 222.115906,179.069183 
	C230.522614,171.613312 230.177521,170.654816 219.884384,165.774094 
	C216.740799,164.283478 213.550751,162.806900 210.643982,160.920242 
	C206.186523,158.027069 204.477722,154.898483 204.183350,149.671295 
	C209.962341,156.935349 217.602325,159.705429 225.743149,161.667755 
	C229.101791,162.477325 232.424637,163.667435 235.558197,165.126068 
	C240.592697,167.469604 242.144958,170.907440 240.279877,176.128098 
	C238.840561,180.156937 236.914444,184.063400 234.781754,187.781616 
	C231.053436,194.281662 230.031982,201.105576 231.824234,208.435379 
	C231.995148,206.137650 232.001816,203.813431 232.367310,201.547073 
	C233.540802,194.270615 237.007202,188.135727 241.893967,182.689651 
	C244.888901,179.351898 248.000381,176.047699 250.494904,172.347763 
	C254.813217,165.942688 253.808044,162.312073 247.083130,158.657913 
	C244.473999,157.240204 241.655441,156.193527 238.892532,155.076111 
	C232.615082,152.537277 231.648941,149.675568 235.531281,144.072266 
	C240.727921,136.572006 246.181595,129.218842 245.527054,119.296333 
	C248.325424,125.186996 248.235229,131.369049 245.683212,136.950165 
	C241.475357,146.152542 244.824509,149.172501 252.637482,152.518723 
	C256.143494,154.020309 259.736633,155.406677 263.030304,157.298019 
	C270.448853,161.557999 272.100952,167.124161 267.609406,174.444473 
	C264.408173,179.661804 260.245270,184.286133 256.550049,189.203995 
	C250.627548,197.086014 249.963089,205.495682 255.166031,213.795578 
	C256.720337,216.275055 260.241669,219.096283 262.723022,218.972733 
	C265.159180,218.851456 268.564270,215.594574 269.496643,212.982803 
	C271.025543,208.700073 270.898071,203.826019 271.596954,198.165833 
	C273.924927,202.590179 276.115662,206.753754 278.630737,211.533707 
	C280.479126,208.000504 280.625916,204.622559 279.199554,201.231583 
	C277.144989,196.347290 274.632172,191.648560 272.717255,186.714493 
	C270.049408,179.840195 271.728851,174.693893 277.576202,170.203247 
	C277.041534,173.009613 275.759186,175.957642 276.145355,178.667923 
	C276.631348,182.079224 277.517426,186.504242 279.897430,188.403381 
	C296.940857,202.003235 290.955780,227.808716 275.395935,238.873627 
	C276.000061,237.316467 276.902832,235.966782 277.856476,234.654083 
	C284.103302,226.054916 287.774536,216.877548 284.570984,205.488632 
	C284.018463,210.511993 284.043610,215.064301 282.842163,219.265854 
	C282.204987,221.494171 279.688812,224.136078 277.547791,224.660675 
	C276.034088,225.031570 273.726532,222.162827 271.843292,220.791229 
	C268.793945,227.236145 265.449402,229.690125 260.041687,228.991989 
	C247.270386,227.343216 238.691086,212.076996 244.307358,200.551102 
	C246.327576,196.405151 249.408401,192.789444 251.662689,188.741013 
	C255.108536,182.552750 258.530914,176.318680 261.362762,169.841507 
	C262.196259,167.935043 261.000549,165.141388 260.734802,162.754333 
	C259.596405,164.959839 259.553650,166.884995 259.194733,168.749268 
	C257.531250,177.389587 250.876785,182.898483 245.964127,189.476715 
	C239.538452,198.080933 234.645737,207.200073 237.065781,218.346390 
	C238.288437,223.977722 240.520416,229.389908 242.261536,234.794159 
	C222.811295,228.382904 218.296432,213.415100 221.408173,194.134583 
	C210.565689,208.249222 211.816010,223.263733 217.107315,239.329620 
	C209.074738,236.050735 203.876770,231.362885 199.827286,225.285858 
	C193.214798,215.362534 194.208374,204.624039 196.361816,193.662949 
	C192.862061,201.380127 189.908508,209.124481 191.409027,217.849289 
	C191.707993,219.587555 191.475632,221.417191 191.488266,223.204697 
M197.726456,191.193069 
	C197.617950,191.039658 197.509445,190.886246 197.400940,190.732834 
	C197.422211,190.947906 197.443481,191.162979 197.726456,191.193069 
M222.414200,192.492599 
	C222.414200,192.492599 222.523636,192.426041 222.414200,192.492599 
z"/>
<path fill="#FBFBFB" opacity="1.000000" stroke="none" 
	d="
M263.735779,268.969788 
	C279.338928,262.285156 294.746246,256.096832 309.678925,248.920883 
	C316.800385,245.498627 323.273865,240.481644 328.251373,233.279007 
	C327.998016,235.892944 328.051422,238.580978 327.440826,241.108597 
	C323.828766,256.060516 314.804077,267.442200 302.719879,276.314606 
	C274.820374,296.798981 243.696274,303.930786 209.733612,296.883209 
	C195.489792,293.927490 183.448547,286.854675 175.367615,274.415802 
	C181.489670,275.650482 187.658081,277.509521 193.940186,278.052063 
	C217.686478,280.102875 240.590637,275.020294 263.735779,268.969788 
z"/>
<path fill="#FD8C00" opacity="1.000000" stroke="none" 
	d="
M191.505798,223.184433 
	C191.475632,221.417191 191.707993,219.587555 191.409027,217.849289 
	C189.908508,209.124481 192.862061,201.380127 196.361816,193.662949 
	C194.208374,204.624039 193.214798,215.362534 199.827286,225.285858 
	C203.876770,231.362885 209.074738,236.050735 217.107315,239.329620 
	C211.816010,223.263733 210.565689,208.249222 221.408173,194.134583 
	C218.296432,213.415100 222.811295,228.382904 242.261536,234.794159 
	C240.520416,229.389908 238.288437,223.977722 237.065781,218.346390 
	C234.645737,207.200073 239.538452,198.080933 245.964127,189.476715 
	C250.876785,182.898483 257.531250,177.389587 259.194733,168.749268 
	C259.553650,166.884995 259.596405,164.959839 260.734802,162.754333 
	C261.000549,165.141388 262.196259,167.935043 261.362762,169.841507 
	C258.530914,176.318680 255.108536,182.552750 251.662689,188.741013 
	C249.408401,192.789444 246.327576,196.405151 244.307358,200.551102 
	C238.691086,212.076996 247.270386,227.343216 260.041687,228.991989 
	C265.449402,229.690125 268.793945,227.236145 271.843292,220.791229 
	C273.726532,222.162827 276.034088,225.031570 277.547791,224.660675 
	C279.688812,224.136078 282.204987,221.494171 282.842163,219.265854 
	C284.043610,215.064301 284.018463,210.511993 284.570984,205.488632 
	C287.774536,216.877548 284.103302,226.054916 277.856476,234.654083 
	C276.902832,235.966782 276.000061,237.316467 275.082092,239.024475 
	C275.084259,239.701584 274.940826,239.907776 274.108032,240.050125 
	C273.119568,240.543213 272.683105,241.004639 272.246643,241.466080 
	C272.246643,241.466080 272.141449,241.264389 271.949097,241.294022 
	C271.525024,241.644547 271.293274,241.965424 271.061554,242.286316 
	C256.631622,252.021698 240.790710,253.538589 224.366714,249.508286 
	C210.997192,246.227524 199.964539,239.182770 193.011627,226.034576 
	C192.501633,224.612595 192.035461,223.900970 191.569275,223.189331 
	C191.569290,223.189331 191.523346,223.164169 191.505798,223.184433 
z"/>
<path fill="#F6F6F5" opacity="1.000000" stroke="none" 
	d="
M205.035217,263.723694 
	C238.598404,263.159821 269.614471,254.930252 298.354065,238.522644 
	C302.351593,236.240433 306.072357,233.233887 309.356018,229.990463 
	C316.285889,223.145584 315.235596,217.787811 306.570892,213.511505 
	C311.692627,212.701324 318.753754,214.571686 321.506134,218.538162 
	C322.955048,220.626160 323.973633,224.736664 322.881073,226.526810 
	C320.098572,231.085724 316.557098,235.546417 312.356537,238.805496 
	C300.413849,248.071518 286.501526,253.775116 272.316467,258.588318 
	C249.051956,266.482330 225.265350,272.063843 200.501801,271.496887 
	C194.105667,271.350494 187.629517,270.008179 181.411087,268.374268 
	C176.967499,267.206696 173.349548,264.380524 173.790039,258.709839 
	C174.165207,253.879883 178.071655,248.615952 182.133438,247.246872 
	C182.133438,250.149399 180.911697,254.218872 182.421234,256.122528 
	C184.657700,258.942902 188.633896,260.839233 192.233521,261.999756 
	C196.117691,263.252045 200.420990,263.204315 205.035217,263.723694 
z"/>
<path fill="#F7F7F7" opacity="1.000000" stroke="none" 
	d="
M414.968994,179.929901 
	C417.077209,178.332672 418.830292,176.695709 420.903412,175.797409 
	C424.502960,174.237671 428.853516,174.069855 430.651062,177.753357 
	C431.914642,180.342606 431.909119,185.327988 430.212555,187.237030 
	C425.889557,192.101379 420.865662,197.005402 415.106262,199.798889 
	C401.225128,206.531647 386.734161,211.999634 372.548035,218.114304 
	C366.146179,220.873703 359.803680,223.798065 353.579193,226.935165 
	C344.989655,231.264206 338.705200,238.003891 334.217010,246.468094 
	C333.554749,247.717072 332.802094,248.918137 331.715942,249.945145 
	C331.110931,239.793503 334.813049,231.306213 343.145630,225.799576 
	C349.732574,221.446548 357.261963,218.501343 364.431244,215.052383 
	C373.257477,210.806305 382.287384,206.960754 390.967438,202.439438 
	C400.880829,197.275665 408.907990,189.855774 414.968994,179.929901 
z"/>
<path fill="#F9F9F9" opacity="1.000000" stroke="none" 
	d="
M395.327332,265.081055 
	C393.268280,265.307556 391.633911,265.501404 388.815460,265.835693 
	C392.274475,268.006592 394.824158,269.606781 397.723511,271.426392 
	C395.817322,274.783966 393.977631,278.024384 391.871246,281.734589 
	C383.019318,276.619202 374.479767,271.684357 366.185608,266.891296 
	C367.576141,256.890900 375.235016,256.886597 382.589294,255.749298 
	C380.093719,254.265381 377.598114,252.781464 374.572815,250.982574 
	C376.500488,247.642532 378.365570,244.410950 380.551331,240.623718 
	C389.239349,245.626678 397.782227,250.546066 406.284302,255.441956 
	C403.577576,263.702301 402.629852,264.551758 395.327332,265.081055 
z"/>
<path fill="#F7F7F6" opacity="1.000000" stroke="none" 
	d="
M123.627823,272.750885 
	C116.593910,272.015015 112.662079,275.690826 109.605743,282.542572 
	C107.388947,276.509399 101.484169,273.330414 104.569221,266.456818 
	C97.563858,266.244934 97.829491,259.842499 94.338562,255.907135 
	C103.290123,250.760696 111.861145,245.833023 120.869247,240.654068 
	C124.023834,246.364563 127.389870,251.715912 130.016724,257.408356 
	C133.026413,263.930450 130.880890,268.684845 123.627823,272.750885 
z"/>
<path fill="#F9F9F9" opacity="1.000000" stroke="none" 
	d="
M224.927185,324.037170 
	C230.457443,330.074677 231.393738,336.020630 228.087952,342.462067 
	C225.127090,348.231354 219.635696,351.033508 212.156479,349.886658 
	C206.618607,349.037445 201.190033,347.475433 195.245270,346.124756 
	C197.664734,336.199585 199.997467,326.630127 202.646408,315.763550 
	C210.253052,318.550385 217.443192,321.184601 224.927185,324.037170 
M215.279221,331.007263 
	C211.222961,329.784637 210.257751,331.255402 210.390564,339.476379 
	C212.635559,338.793488 215.492340,338.758423 216.387100,337.415771 
	C217.266525,336.096161 216.153961,333.449005 215.279221,331.007263 
z"/>
<path fill="#F9F9F9" opacity="1.000000" stroke="none" 
	d="
M362.545349,274.277527 
	C372.487518,273.924469 379.857635,279.916748 380.654999,288.599579 
	C381.394806,296.655670 373.943298,305.769196 365.252472,307.437531 
	C357.680206,308.891144 349.655579,303.477234 347.599548,295.527802 
	C345.368439,286.901367 351.641510,277.766418 362.545349,274.277527 
M360.864746,287.322479 
	C358.673157,289.602234 358.284790,292.261871 360.886505,294.092041 
	C362.253082,295.053345 365.243622,295.304779 366.461151,294.429871 
	C367.679779,293.554199 368.444061,290.583344 367.911011,289.051605 
	C366.940063,286.261505 364.402771,285.310608 360.864746,287.322479 
z"/>
<path fill="#F9F8F8" opacity="1.000000" stroke="none" 
	d="
M284.116638,350.048401 
	C278.950775,348.512238 276.425507,344.984131 275.207367,340.401947 
	C273.760651,334.960175 272.470367,329.476868 270.978912,323.474762 
	C274.860657,322.472046 278.619202,321.501129 282.972198,320.376709 
	C284.302917,325.483826 285.431885,330.436340 286.952972,335.265320 
	C287.392090,336.659302 288.958740,337.698120 290.008423,338.899780 
	C290.394196,337.358215 291.331970,335.713013 291.065491,334.293915 
	C290.150574,329.421692 288.813843,324.628693 287.523010,319.334259 
	C291.497375,318.309723 295.273499,317.336273 299.607239,316.219116 
	C301.146759,322.742065 303.027313,328.923889 303.992615,335.245483 
	C305.241669,343.425110 299.939545,349.010925 290.436859,350.195068 
	C288.490601,350.437622 286.479767,350.162262 284.116638,350.048401 
z"/>
<path fill="#F7F7F7" opacity="1.000000" stroke="none" 
	d="
M176.888397,304.250305 
	C181.152664,310.537109 181.028870,315.669098 176.749054,320.341278 
	C172.231369,325.273071 167.620270,325.201050 157.611343,319.932068 
	C156.467056,321.426941 155.296692,322.955841 153.924286,324.748718 
	C150.472794,322.461700 147.212128,320.301117 143.645737,317.937958 
	C149.358170,309.408844 154.863464,301.188995 160.661636,292.531860 
	C166.162079,296.468109 171.404205,300.219513 176.888397,304.250305 
z"/>
<path fill="#F7F7F7" opacity="1.000000" stroke="none" 
	d="
M140.567902,306.644073 
	C139.451172,308.727234 138.532120,310.495087 137.223175,313.012939 
	C134.537781,310.116302 132.026733,307.535004 129.700699,304.796539 
	C129.207199,304.215515 129.067474,302.958557 129.313614,302.188477 
	C130.505981,298.457794 126.643127,295.811951 125.488197,296.069458 
	C120.062538,297.279266 118.923340,292.607025 116.108749,290.324371 
	C115.234871,289.615662 114.609169,288.600952 113.623726,287.435150 
	C122.855057,283.379425 131.773270,279.382446 140.786606,275.612976 
	C141.779602,275.197693 143.697601,275.673798 144.532562,276.444794 
	C147.205811,278.913208 149.571503,281.714722 152.081879,284.415619 
	C148.233765,291.867188 144.499664,299.097961 140.567902,306.644073 
z"/>
<path fill="#F7F7F7" opacity="1.000000" stroke="none" 
	d="
M326.002228,316.998077 
	C330.824127,316.914673 334.511871,318.688477 335.866974,323.606842 
	C337.202271,328.453125 334.902771,332.025543 331.142761,334.743652 
	C326.878387,337.826385 322.178009,340.255737 316.791107,338.892517 
	C314.359558,338.277191 312.295685,336.208984 309.275513,334.301239 
	C312.903320,332.308746 315.271301,331.008179 317.639282,329.707611 
	C317.613342,329.390991 317.587402,329.074402 317.561462,328.757782 
	C316.432709,328.690399 315.297150,328.509003 314.176453,328.576080 
	C310.087128,328.820770 307.033783,327.279510 305.333405,323.486389 
	C303.661469,319.756744 304.419098,316.355499 307.035858,313.318726 
	C311.615448,308.004181 320.663879,305.321289 325.455750,308.065643 
	C327.067413,308.988556 328.285431,310.598694 329.991943,312.180817 
	C328.099121,313.211975 326.812469,313.912903 324.904053,314.833252 
	C321.320312,315.860779 318.358276,316.668854 315.396240,317.476959 
	C315.593628,318.173218 315.791046,318.869507 315.988434,319.565765 
	C319.326355,318.709869 322.664307,317.853973 326.002228,316.998077 
z"/>
<path fill="#F7F7F7" opacity="1.000000" stroke="none" 
	d="
M259.863525,352.510620 
	C255.999130,353.729523 252.131775,354.502045 247.211975,355.484802 
	C247.211975,344.644348 247.211975,334.757782 247.211975,324.180542 
	C253.675095,324.180542 260.724274,324.180542 268.180817,324.180542 
	C268.342438,326.931732 268.524384,330.029449 268.737518,333.657501 
	C266.630127,333.770020 264.836090,333.696075 263.113159,334.011047 
	C261.714264,334.266785 260.400665,334.989349 259.049255,335.504883 
	C260.345917,336.039490 261.601135,336.792755 262.950653,337.048676 
	C264.366180,337.317139 265.872162,337.108734 267.714874,337.108734 
	C267.714874,340.325867 267.714874,343.260773 267.714874,346.661987 
	C265.366760,346.828339 262.779419,347.011658 259.860535,347.218445 
	C259.860535,348.881622 259.860535,350.472961 259.863525,352.510620 
z"/>
<path fill="#F8F8F8" opacity="1.000000" stroke="none" 
	d="
M194.371933,324.504028 
	C191.714783,330.449249 189.240921,336.063019 186.561462,342.143402 
	C182.804733,340.512238 179.233383,338.961578 175.119110,337.175171 
	C179.224258,327.916290 183.222977,318.897522 187.433167,309.401764 
	C191.292648,311.105408 194.863419,312.681580 198.783173,314.411835 
	C197.297653,317.841339 195.926437,321.006958 194.371933,324.504028 
z"/>
<path fill="#F8F8F8" opacity="1.000000" stroke="none" 
	d="
M349.944489,310.010040 
	C352.058472,312.992584 353.975281,315.677124 356.037933,318.565918 
	C352.680389,320.979614 349.493378,323.270721 345.956970,325.813019 
	C339.973663,317.531799 334.196716,309.536194 328.196289,301.231262 
	C331.595215,298.763855 334.777954,296.453369 338.268402,293.919495 
	C342.205078,299.335510 345.976196,304.523773 349.944489,310.010040 
z"/>
<path fill="#DFDEDE" opacity="1.000000" stroke="none" 
	d="
M280.600586,372.784302 
	C278.819977,373.032532 277.246368,373.481873 275.909790,373.100494 
	C274.688324,372.752014 273.723358,371.504608 272.645355,370.653381 
	C275.621246,368.861938 269.923920,363.921173 275.237366,363.208466 
	C277.240265,362.939819 279.394379,363.798462 281.479553,364.143188 
	C281.371643,364.659668 281.263702,365.176147 281.155792,365.692627 
	C279.393799,365.457977 277.631805,365.223328 275.669189,364.961945 
	C276.449402,368.641052 285.987305,365.363800 280.600586,372.784302 
z"/>
<path fill="#DFDEDE" opacity="1.000000" stroke="none" 
	d="
M243.742310,369.931458 
	C245.400681,367.393799 246.915939,365.238647 248.431198,363.083496 
	C249.897858,365.312958 251.413437,367.512512 252.805237,369.787750 
	C253.308701,370.610779 253.515671,371.615173 253.697479,372.104736 
	C250.282104,372.104736 246.844177,372.104736 243.100067,372.104736 
	C243.145081,371.943207 243.372147,371.128571 243.742310,369.931458 
z"/>
<path fill="#DCDCDB" opacity="1.000000" stroke="none" 
	d="
M229.338394,364.457520 
	C232.209854,363.654449 235.008224,363.292053 237.806580,362.929657 
	C237.864471,363.615936 237.922363,364.302216 237.980255,364.988525 
	C236.210648,365.091736 234.441025,365.194977 232.494736,365.308533 
	C232.494736,367.066772 232.494736,368.830139 232.494736,370.734406 
	C234.174103,370.929169 236.115173,371.154327 238.056244,371.379456 
	C238.034988,371.769226 238.013733,372.158997 237.992477,372.548767 
	C235.257355,372.548767 232.522247,372.548767 229.265289,372.548767 
	C229.265289,370.095703 229.265289,367.496918 229.338394,364.457520 
z"/>
<path fill="#D7D6D5" opacity="1.000000" stroke="none" 
	d="
M264.658264,367.968018 
	C264.381500,370.027100 264.109314,371.646454 263.651062,374.372681 
	C260.295105,370.615417 264.408081,364.871735 258.276703,363.680969 
	C261.453644,363.680969 264.630554,363.680969 268.265472,363.680969 
	C266.937744,365.098846 265.800293,366.313568 264.658264,367.968018 
z"/>
<path fill="#3A3632" opacity="1.000000" stroke="none" 
	d="
M325.883453,316.746216 
	C322.664307,317.853973 319.326355,318.709869 315.988434,319.565765 
	C315.791046,318.869507 315.593628,318.173218 315.396240,317.476959 
	C318.358276,316.668854 321.320312,315.860779 324.646790,315.038086 
	C325.262390,315.513763 325.513519,316.004089 325.883453,316.746216 
z"/>
<path fill="#F9B900" opacity="1.000000" stroke="none" 
	d="
M191.615448,223.520874 
	C192.035461,223.900970 192.501633,224.612595 192.981934,225.686371 
	C192.551239,225.316498 192.106415,224.584473 191.615448,223.520874 
z"/>
<path fill="#F9B900" opacity="1.000000" stroke="none" 
	d="
M272.562012,241.400299 
	C272.683105,241.004639 273.119568,240.543213 273.909760,240.067383 
	C273.801453,240.480164 273.339386,240.907349 272.562012,241.400299 
z"/>
<path fill="#F9B900" opacity="1.000000" stroke="none" 
	d="
M271.353333,242.198242 
	C271.293274,241.965424 271.525024,241.644547 272.061340,241.275574 
	C272.125671,241.521729 271.885376,241.815948 271.353333,242.198242 
z"/>
<path fill="#FD8C00" opacity="1.000000" stroke="none" 
	d="
M197.595612,191.285553 
	C197.443481,191.162979 197.422211,190.947906 197.400940,190.732834 
	C197.509445,190.886246 197.617950,191.039658 197.595612,191.285553 
z"/>
<path fill="#FD8C00" opacity="1.000000" stroke="none" 
	d="
M222.468918,192.459320 
	C222.523636,192.426041 222.414200,192.492599 222.468918,192.459320 
z"/>
<path fill="#131110" opacity="1.000000" stroke="none" 
	d="
M215.597366,331.195831 
	C216.153961,333.449005 217.266525,336.096161 216.387100,337.415771 
	C215.492340,338.758423 212.635559,338.793488 210.390564,339.476379 
	C210.257751,331.255402 211.222961,329.784637 215.597366,331.195831 
z"/>
<path fill="#161514" opacity="1.000000" stroke="none" 
	d="
M361.169769,287.108704 
	C364.402771,285.310608 366.940063,286.261505 367.911011,289.051605 
	C368.444061,290.583344 367.679779,293.554199 366.461151,294.429871 
	C365.243622,295.304779 362.253082,295.053345 360.886505,294.092041 
	C358.284790,292.261871 358.673157,289.602234 361.169769,287.108704 
z"/>
</svg>